<mxfile host="app.diagrams.net" agent="Mozilla/5.0 (Windows NT 10.0; Win64; x64) AppleWebKit/537.36 (KHTML, like Gecko) Chrome/135.0.0.0 Safari/537.36" version="26.2.14">
  <diagram name="Page-1" id="h3pUtSSsdFnpB6aglskF">
    <mxGraphModel dx="3488" dy="1860" grid="1" gridSize="10" guides="1" tooltips="1" connect="1" arrows="1" fold="1" page="1" pageScale="1" pageWidth="4681" pageHeight="3300" math="0" shadow="0">
      <root>
        <mxCell id="0" />
        <mxCell id="1" parent="0" />
        <mxCell id="CUMH2ot100d4xSnpaqMg-2" value="" style="sketch=0;outlineConnect=0;fontColor=#232F3E;gradientColor=none;fillColor=#232F3D;strokeColor=none;dashed=0;verticalLabelPosition=bottom;verticalAlign=top;align=center;html=1;fontSize=12;fontStyle=0;aspect=fixed;pointerEvents=1;shape=mxgraph.aws4.source_code;" vertex="1" parent="1">
          <mxGeometry x="104" y="866" width="275.5" height="377" as="geometry" />
        </mxCell>
        <mxCell id="CUMH2ot100d4xSnpaqMg-3" value="&lt;font style=&quot;font-size: 64px;&quot;&gt;Legacy Code&lt;/font&gt;" style="text;html=1;align=center;verticalAlign=middle;whiteSpace=wrap;rounded=0;" vertex="1" parent="1">
          <mxGeometry x="104" y="1305" width="275.5" height="140" as="geometry" />
        </mxCell>
        <mxCell id="CUMH2ot100d4xSnpaqMg-11" style="edgeStyle=orthogonalEdgeStyle;rounded=0;orthogonalLoop=1;jettySize=auto;html=1;strokeWidth=10;" edge="1" parent="1" source="CUMH2ot100d4xSnpaqMg-4" target="CUMH2ot100d4xSnpaqMg-10">
          <mxGeometry relative="1" as="geometry" />
        </mxCell>
        <mxCell id="CUMH2ot100d4xSnpaqMg-4" value="" style="dashed=0;outlineConnect=0;html=1;align=center;labelPosition=center;verticalLabelPosition=bottom;verticalAlign=top;shape=mxgraph.weblogos.github" vertex="1" parent="1">
          <mxGeometry x="684" y="865" width="378" height="378" as="geometry" />
        </mxCell>
        <mxCell id="CUMH2ot100d4xSnpaqMg-6" value="" style="endArrow=classic;html=1;rounded=0;strokeWidth=10;" edge="1" parent="1" source="CUMH2ot100d4xSnpaqMg-2" target="CUMH2ot100d4xSnpaqMg-4">
          <mxGeometry width="50" height="50" relative="1" as="geometry">
            <mxPoint x="1424" y="1300" as="sourcePoint" />
            <mxPoint x="1474" y="1250" as="targetPoint" />
          </mxGeometry>
        </mxCell>
        <mxCell id="CUMH2ot100d4xSnpaqMg-8" value="&lt;font style=&quot;font-size: 64px;&quot;&gt;Upload to GitHub&lt;/font&gt;" style="text;html=1;align=center;verticalAlign=middle;whiteSpace=wrap;rounded=0;" vertex="1" parent="1">
          <mxGeometry x="693" y="1265" width="360" height="220" as="geometry" />
        </mxCell>
        <mxCell id="CUMH2ot100d4xSnpaqMg-21" style="edgeStyle=orthogonalEdgeStyle;rounded=0;orthogonalLoop=1;jettySize=auto;html=1;exitX=0.5;exitY=0;exitDx=0;exitDy=0;strokeWidth=10;" edge="1" parent="1" source="CUMH2ot100d4xSnpaqMg-10" target="CUMH2ot100d4xSnpaqMg-20">
          <mxGeometry relative="1" as="geometry" />
        </mxCell>
        <mxCell id="CUMH2ot100d4xSnpaqMg-10" value="" style="rounded=1;whiteSpace=wrap;html=1;direction=south;" vertex="1" parent="1">
          <mxGeometry x="1365" y="720" width="839" height="670" as="geometry" />
        </mxCell>
        <mxCell id="CUMH2ot100d4xSnpaqMg-12" value="&lt;font style=&quot;font-size: 64px;&quot;&gt;Pre-Modernization Validation&lt;/font&gt;" style="text;html=1;align=center;verticalAlign=middle;whiteSpace=wrap;rounded=0;" vertex="1" parent="1">
          <mxGeometry x="1365" y="1387" width="839" height="220" as="geometry" />
        </mxCell>
        <mxCell id="CUMH2ot100d4xSnpaqMg-13" value="" style="sketch=0;pointerEvents=1;shadow=0;dashed=0;html=1;strokeColor=none;fillColor=#505050;labelPosition=center;verticalLabelPosition=bottom;verticalAlign=top;outlineConnect=0;align=center;shape=mxgraph.office.concepts.folder;aspect=fixed;" vertex="1" parent="1">
          <mxGeometry x="1405" y="893.5" width="150" height="135" as="geometry" />
        </mxCell>
        <mxCell id="CUMH2ot100d4xSnpaqMg-14" value="&lt;font style=&quot;font-size: 48px;&quot;&gt;Validate Project Structure&lt;/font&gt;" style="text;html=1;align=left;verticalAlign=middle;whiteSpace=wrap;rounded=0;" vertex="1" parent="1">
          <mxGeometry x="1574" y="851" width="590" height="220" as="geometry" />
        </mxCell>
        <mxCell id="CUMH2ot100d4xSnpaqMg-15" value="package" style="shape=folder;fontStyle=1;spacingTop=10;tabWidth=40;tabHeight=14;tabPosition=left;html=1;whiteSpace=wrap;aspect=fixed;fontSize=32;" vertex="1" parent="1">
          <mxGeometry x="1405" y="1123.5" width="150" height="107.14" as="geometry" />
        </mxCell>
        <mxCell id="CUMH2ot100d4xSnpaqMg-16" value="&lt;font style=&quot;font-size: 48px;&quot;&gt;Dependency Validation&lt;/font&gt;" style="text;html=1;align=left;verticalAlign=middle;whiteSpace=wrap;rounded=0;" vertex="1" parent="1">
          <mxGeometry x="1574" y="1067.07" width="590" height="220" as="geometry" />
        </mxCell>
        <mxCell id="CUMH2ot100d4xSnpaqMg-20" value="" style="sketch=0;outlineConnect=0;fontColor=#232F3E;gradientColor=none;fillColor=light-dark(#01A88D,#FFFFFF);strokeColor=none;dashed=0;verticalLabelPosition=bottom;verticalAlign=top;align=center;html=1;fontSize=12;fontStyle=0;aspect=fixed;shape=mxgraph.aws4.mainframe_modernization_developer;" vertex="1" parent="1">
          <mxGeometry x="2514" y="867" width="378" height="378" as="geometry" />
        </mxCell>
        <mxCell id="CUMH2ot100d4xSnpaqMg-23" value="&lt;font style=&quot;font-size: 64px;&quot;&gt;Amazon Q Modernization Job&lt;/font&gt;" style="text;html=1;align=center;verticalAlign=middle;whiteSpace=wrap;rounded=0;" vertex="1" parent="1">
          <mxGeometry x="2453" y="1305" width="500" height="220" as="geometry" />
        </mxCell>
        <mxCell id="CUMH2ot100d4xSnpaqMg-25" style="edgeStyle=orthogonalEdgeStyle;rounded=0;orthogonalLoop=1;jettySize=auto;html=1;entryX=0.5;entryY=1;entryDx=0;entryDy=0;strokeWidth=10;" edge="1" parent="1" source="CUMH2ot100d4xSnpaqMg-20" target="CUMH2ot100d4xSnpaqMg-24">
          <mxGeometry relative="1" as="geometry" />
        </mxCell>
        <mxCell id="CUMH2ot100d4xSnpaqMg-24" value="" style="rounded=1;whiteSpace=wrap;html=1;direction=south;" vertex="1" parent="1">
          <mxGeometry x="3200" y="720" width="839" height="670" as="geometry" />
        </mxCell>
      </root>
    </mxGraphModel>
  </diagram>
</mxfile>
